<?xml version="1.0"?>
<svg xmlns="http://www.w3.org/2000/svg" xmlns:xlink="http://www.w3.org/1999/xlink" xmlns:svgjs="http://svgjs.com/svgjs" version="1.1" width="512" height="512" x="0" y="0" viewBox="0 0 512.002 512.002" style="enable-background:new 0 0 512 512" xml:space="preserve"><g><g xmlns="http://www.w3.org/2000/svg"><g><path d="m467 94.652v-19.65c0-16.542-13.458-30-30-30h-30.499v-25.002c0-11.028-8.972-20-20-20h-60c-11.028 0-20 8.972-20 20v25.646c-21.422 2.92-39.793 15.567-50.5 33.331-12.26-20.341-34.568-33.975-60-33.975h-120.999c-16.542 0-30 13.458-30 30v19.649c-26.796 10.301-45.002 36.285-45.002 65.352v281.999c0 38.598 31.401 70 70 70h372.002c38.599 0 70-31.402 70-70v-281.999c0-29.117-18.19-55.055-45.002-65.351zm-140.499-74.652h60v125.739l-24.857-14.906c-3.166-1.898-7.119-1.898-10.285 0l-24.857 14.906v-125.739zm-20 45.919v80.092c-.002 3.282.807 6.585 2.335 9.549 2.506 4.865 6.884 8.493 12.012 9.952 5.062 1.441 10.353.732 14.891-1.992l20.763-12.45 19.782 11.863c3.187 2.182 6.883 3.333 10.722 3.333 10.75 0 19.496-9.083 19.496-20.249v-81.015h30.498c5.514 0 10 4.486 10 10v311.999h-130.999c-19.57 0-37.285 8.079-50 21.069v-293.069c0-24.321 17.459-44.631 40.5-49.082zm140.499 341.082v30c0 5.514-4.486 10-10 10h-169.993c4.646-22.794 24.847-40 48.994-40zm-381.998-331.999c0-5.514 4.486-10 10-10h120.999c27.57 0 50 22.43 50 50v293.068c-12.715-12.99-30.43-21.069-50-21.069h-50.999c-5.522 0-10 4.477-10 10s4.478 10 10 10h50.999c24.146 0 44.348 17.205 48.994 40h-169.993c-5.514 0-10-4.486-10-10zm-45.002 367v-281.999c0-18.053 9.84-34.445 25.002-43.256v320.253c0 16.542 13.458 30 30 30h170.999v25.001h-176.001c-27.57.001-50-22.429-50-49.999zm472.002 0c0 27.57-22.43 50-50 50h-176.001v-25.002h170.999c16.542 0 30-13.458 30-30v-320.256c15.167 8.802 25.002 25.173 25.002 43.259z" fill="#ffffff" data-original="#000000" style=""/><path d="m105.002 113.859h90.999c5.522 0 10-4.477 10-10s-4.478-10-10-10h-90.999c-5.522 0-10 4.477-10 10s4.477 10 10 10z" fill="#ffffff" data-original="#000000" style=""/><path d="m105.002 162.716h90.999c5.522 0 10-4.477 10-10s-4.478-10-10-10h-90.999c-5.522 0-10 4.477-10 10s4.477 10 10 10z" fill="#ffffff" data-original="#000000" style=""/><path d="m105.002 211.573h90.999c5.522 0 10-4.477 10-10s-4.478-10-10-10h-90.999c-5.522 0-10 4.477-10 10s4.477 10 10 10z" fill="#ffffff" data-original="#000000" style=""/><path d="m105.002 260.43h90.999c5.522 0 10-4.477 10-10s-4.478-10-10-10h-90.999c-5.522 0-10 4.477-10 10s4.477 10 10 10z" fill="#ffffff" data-original="#000000" style=""/><path d="m105.002 309.286h90.999c5.522 0 10-4.477 10-10s-4.478-10-10-10h-90.999c-5.522 0-10 4.477-10 10s4.477 10 10 10z" fill="#ffffff" data-original="#000000" style=""/><path d="m105.002 358.144h90.999c5.522 0 10-4.477 10-10s-4.478-10-10-10h-90.999c-5.522 0-10 4.477-10 10s4.477 10 10 10z" fill="#ffffff" data-original="#000000" style=""/><path d="m316.001 211.573h90.999c5.522 0 10-4.477 10-10s-4.478-10-10-10h-90.999c-5.522 0-10 4.477-10 10s4.478 10 10 10z" fill="#ffffff" data-original="#000000" style=""/><path d="m316.001 260.43h90.999c5.522 0 10-4.477 10-10s-4.478-10-10-10h-90.999c-5.522 0-10 4.477-10 10s4.478 10 10 10z" fill="#ffffff" data-original="#000000" style=""/><path d="m316.001 309.286h90.999c5.522 0 10-4.477 10-10s-4.478-10-10-10h-90.999c-5.522 0-10 4.477-10 10s4.478 10 10 10z" fill="#ffffff" data-original="#000000" style=""/><path d="m316.001 358.144h90.999c5.522 0 10-4.477 10-10s-4.478-10-10-10h-90.999c-5.522 0-10 4.477-10 10s4.478 10 10 10z" fill="#ffffff" data-original="#000000" style=""/><path d="m100.006 407.001c5.522 0 10-4.477 10-10s-4.478-10-10-10h-.008c-5.522 0-9.996 4.477-9.996 10s4.481 10 10.004 10z" fill="#ffffff" data-original="#000000" style=""/></g></g></g></svg>
